<mxfile host="Electron" agent="Mozilla/5.0 (Windows NT 10.0; Win64; x64) AppleWebKit/537.36 (KHTML, like Gecko) draw.io/26.0.4 Chrome/128.0.6613.186 Electron/32.2.5 Safari/537.36" version="26.0.4">
  <diagram name="Page-1" id="s7eZuxqoKWtJWL9nTWCv">
    <mxGraphModel dx="735" dy="478" grid="1" gridSize="10" guides="1" tooltips="1" connect="1" arrows="1" fold="1" page="1" pageScale="1" pageWidth="827" pageHeight="1169" math="0" shadow="0">
      <root>
        <mxCell id="0" />
        <mxCell id="1" parent="0" />
        <mxCell id="v3rilWL1QpnP7DWFGL_C-24" value="Research Methods" style="ellipse;aspect=fixed;strokeWidth=2;whiteSpace=wrap;fontSize=36;fillColor=#e1d5e7;strokeColor=#9673a6;" vertex="1" parent="1">
          <mxGeometry x="482" y="276" width="204" height="204" as="geometry" />
        </mxCell>
        <mxCell id="v3rilWL1QpnP7DWFGL_C-25" value="Module Introduction &amp; What Makes a Good Project?" style="whiteSpace=wrap;strokeWidth=2;rounded=1;fillColor=#d5e8d4;strokeColor=#82b366;fontColor=#000000;fontStyle=1" vertex="1" parent="1">
          <mxGeometry x="600" y="200" width="170" height="50" as="geometry" />
        </mxCell>
        <mxCell id="v3rilWL1QpnP7DWFGL_C-26" value="Referencing &amp; Report Structure" style="whiteSpace=wrap;strokeWidth=2;rounded=1;fillColor=#f8cecc;strokeColor=#b85450;fontStyle=1" vertex="1" parent="1">
          <mxGeometry x="480" y="130" width="188" height="45" as="geometry" />
        </mxCell>
        <mxCell id="v3rilWL1QpnP7DWFGL_C-27" value="Ethics &amp; Plagiarism" style="whiteSpace=wrap;strokeWidth=2;rounded=1;fillColor=#ffe6cc;strokeColor=#d79b00;fontColor=#000000;fontStyle=1" vertex="1" parent="1">
          <mxGeometry x="721" y="330" width="149" height="48" as="geometry" />
        </mxCell>
        <mxCell id="v3rilWL1QpnP7DWFGL_C-28" value="Framing Your Research" style="whiteSpace=wrap;strokeWidth=2;rounded=1;fillColor=#e3c800;fontColor=#000000;strokeColor=#B09500;fontStyle=1" vertex="1" parent="1">
          <mxGeometry x="274" y="330" width="160" height="48" as="geometry" />
        </mxCell>
        <mxCell id="v3rilWL1QpnP7DWFGL_C-29" value="Critically Analysing Sources" style="whiteSpace=wrap;strokeWidth=2;rounded=1;fillColor=#f5f5f5;fontColor=#000000;strokeColor=#666666;fontStyle=1" vertex="1" parent="1">
          <mxGeometry x="700" y="260" width="170" height="48" as="geometry" />
        </mxCell>
        <mxCell id="v3rilWL1QpnP7DWFGL_C-30" value="How to Write &#39;Proper&#39; &amp; Proof Reading and Editing" style="whiteSpace=wrap;strokeWidth=2;rounded=1;fillColor=#dae8fc;strokeColor=#6c8ebf;fontStyle=1" vertex="1" parent="1">
          <mxGeometry x="400" y="490" width="184" height="50" as="geometry" />
        </mxCell>
        <mxCell id="v3rilWL1QpnP7DWFGL_C-31" value="Literature Surveys" style="whiteSpace=wrap;strokeWidth=2;rounded=1;fillColor=#d5e8d4;strokeColor=#82b366;fontStyle=1" vertex="1" parent="1">
          <mxGeometry x="640" y="480" width="160" height="40" as="geometry" />
        </mxCell>
        <mxCell id="v3rilWL1QpnP7DWFGL_C-32" value="Methods &amp; Methodologies" style="whiteSpace=wrap;strokeWidth=2;rounded=1;fillColor=#e1d5e7;strokeColor=#9673a6;fontColor=#000000;fontStyle=1" vertex="1" parent="1">
          <mxGeometry x="700" y="400" width="170" height="45" as="geometry" />
        </mxCell>
        <mxCell id="v3rilWL1QpnP7DWFGL_C-33" value="Capturing Requirements" style="whiteSpace=wrap;strokeWidth=2;rounded=1;fillColor=#fff2cc;strokeColor=#d6b656;fontStyle=1" vertex="1" parent="1">
          <mxGeometry x="274" y="260" width="189" height="48" as="geometry" />
        </mxCell>
        <mxCell id="v3rilWL1QpnP7DWFGL_C-34" value="Systems Modelling, UML, &amp; GitHub Profiles" style="whiteSpace=wrap;strokeWidth=2;rounded=1;fillColor=#b0e3e6;strokeColor=#0e8088;fontStyle=1" vertex="1" parent="1">
          <mxGeometry x="290" y="400" width="144" height="65" as="geometry" />
        </mxCell>
        <mxCell id="v3rilWL1QpnP7DWFGL_C-35" value="Assessment Support" style="whiteSpace=wrap;strokeWidth=2;rounded=1;fillColor=#dae8fc;strokeColor=#6c8ebf;fontStyle=1" vertex="1" parent="1">
          <mxGeometry x="380" y="192" width="154" height="48" as="geometry" />
        </mxCell>
        <mxCell id="v3rilWL1QpnP7DWFGL_C-37" style="endArrow=none;rounded=0;" edge="1" parent="1" source="v3rilWL1QpnP7DWFGL_C-24" target="v3rilWL1QpnP7DWFGL_C-25">
          <mxGeometry relative="1" as="geometry" />
        </mxCell>
        <mxCell id="v3rilWL1QpnP7DWFGL_C-38" style="endArrow=none;rounded=0;" edge="1" parent="1" source="v3rilWL1QpnP7DWFGL_C-24" target="v3rilWL1QpnP7DWFGL_C-26">
          <mxGeometry relative="1" as="geometry" />
        </mxCell>
        <mxCell id="v3rilWL1QpnP7DWFGL_C-39" style="endArrow=none;rounded=0;" edge="1" parent="1" source="v3rilWL1QpnP7DWFGL_C-24" target="v3rilWL1QpnP7DWFGL_C-27">
          <mxGeometry relative="1" as="geometry" />
        </mxCell>
        <mxCell id="v3rilWL1QpnP7DWFGL_C-40" style="endArrow=none;rounded=0;" edge="1" parent="1" source="v3rilWL1QpnP7DWFGL_C-24" target="v3rilWL1QpnP7DWFGL_C-28">
          <mxGeometry relative="1" as="geometry" />
        </mxCell>
        <mxCell id="v3rilWL1QpnP7DWFGL_C-41" style="endArrow=none;rounded=0;" edge="1" parent="1" source="v3rilWL1QpnP7DWFGL_C-24" target="v3rilWL1QpnP7DWFGL_C-29">
          <mxGeometry relative="1" as="geometry" />
        </mxCell>
        <mxCell id="v3rilWL1QpnP7DWFGL_C-42" style="endArrow=none;rounded=0;" edge="1" parent="1" source="v3rilWL1QpnP7DWFGL_C-24" target="v3rilWL1QpnP7DWFGL_C-30">
          <mxGeometry relative="1" as="geometry" />
        </mxCell>
        <mxCell id="v3rilWL1QpnP7DWFGL_C-43" style="endArrow=none;rounded=0;" edge="1" parent="1" source="v3rilWL1QpnP7DWFGL_C-24" target="v3rilWL1QpnP7DWFGL_C-31">
          <mxGeometry relative="1" as="geometry" />
        </mxCell>
        <mxCell id="v3rilWL1QpnP7DWFGL_C-44" style="endArrow=none;rounded=0;" edge="1" parent="1" source="v3rilWL1QpnP7DWFGL_C-24" target="v3rilWL1QpnP7DWFGL_C-32">
          <mxGeometry relative="1" as="geometry" />
        </mxCell>
        <mxCell id="v3rilWL1QpnP7DWFGL_C-45" style="endArrow=none;rounded=0;" edge="1" parent="1" source="v3rilWL1QpnP7DWFGL_C-24" target="v3rilWL1QpnP7DWFGL_C-33">
          <mxGeometry relative="1" as="geometry" />
        </mxCell>
        <mxCell id="v3rilWL1QpnP7DWFGL_C-46" style="endArrow=none;rounded=0;" edge="1" parent="1" source="v3rilWL1QpnP7DWFGL_C-24" target="v3rilWL1QpnP7DWFGL_C-34">
          <mxGeometry relative="1" as="geometry" />
        </mxCell>
        <mxCell id="v3rilWL1QpnP7DWFGL_C-47" style="endArrow=none;rounded=0;" edge="1" parent="1" source="v3rilWL1QpnP7DWFGL_C-24" target="v3rilWL1QpnP7DWFGL_C-35">
          <mxGeometry relative="1" as="geometry" />
        </mxCell>
      </root>
    </mxGraphModel>
  </diagram>
</mxfile>
